# xmcd
#
# Track frame offsets:
#	150
#	17075
#	32415
#	44012
#	61607
#	85370
#	99282
#	118812
#	131575
#	146187
#
# Disc length: 2143 seconds
#
# Revision: 0
# Processed by: cddbd v1.4PL0 Copyright (c) Steve Scherf et al.
# Submitted via: dBpowerAMP V4.0
#
DISCID=84085d0a
DTITLE=David Allan Coe - The Hits Of David Allen Coe
DYEAR=1900
DGENRE=
TTITLE0=Mona Lisa Lost Her Smile (J. Cunningham)
TTITLE1=Now I Lay Me Down To Cheat (Aldridge/Henderson)
TTITLE2=Face To Face (D.A. Coe)
TTITLE3=Pleading My Love (Robey/Washington)
TTITLE4=You Never Even Called Me By Me Name (S. Goodman)
TTITLE5=She Used To Leve Me A Lot (Fleming/Morgan/Quillen)
TTITLE6=Please Come To Boston (D. Loggins)
TTITLE7=If You Ever Think Of Me At All (D.A. Coe/S. Silverstein)
TTITLE8=The Ride (J.B. Detterline Jr./G. Gentry)
TTITLE9=Willie, Waylon And Me (D.A. Coe)
EXTD=
EXTT0=
EXTT1=
EXTT2=
EXTT3=
EXTT4=
EXTT5=
EXTT6=
EXTT7=
EXTT8=
EXTT9=
PLAYORDER=
